<?xml version="1.0" encoding="utf-8"?>
<!-- Generator: Adobe Illustrator 27.8.1, SVG Export Plug-In . SVG Version: 6.00 Build 0)  -->
<svg version="1.1" id="Layer_1" xmlns="http://www.w3.org/2000/svg" xmlns:xlink="http://www.w3.org/1999/xlink" x="0px" y="0px"
	 viewBox="0 0 278.5 52.7" style="enable-background:new 0 0 278.5 52.7;" xml:space="preserve">
<style type="text/css">
	.st0{fill-rule:evenodd;clip-rule:evenodd;fill:#333333;}
	.st1{fill:#333333;}
</style>
<g>
	<path class="st0" d="M0.5,16.9V17l29.8,13.8L60.1,17v0L30.3,3.1L0.5,16.9z M11.3,17l19-8.8l19,8.8l-19,8.8
		C30.3,25.8,11.3,17,11.3,17z M30.3,36.1L0.5,22.6v5l29.8,13.6l29.9-13.6v-5L30.3,36.1z M30.3,46.3L0.5,32.7v5l29.8,13.6l29.9-13.6
		v-5L30.3,46.3z"/>
	<g>
		<path class="st1" d="M72.2,1.9c2.3-0.1,4.4-0.2,6.5-0.3c2-0.1,4.2-0.1,6.5-0.1c2.8,0,5.3,0.5,7.5,1.4c2.3,0.9,4.2,2.3,5.8,4
			c1.6,1.7,2.9,3.8,3.8,6.1c0.9,2.4,1.3,5,1.3,7.9c0,2.8-0.4,5.4-1.3,7.8c-0.9,2.4-2.2,4.4-3.8,6.1c-1.6,1.7-3.6,3-5.9,4
			c-2.3,0.9-4.8,1.4-7.5,1.4c-2.3,0-4.5,0-6.5-0.1c-2.1-0.1-4.2-0.1-6.4-0.3V1.9z M78.8,33.1c1.7,0.3,3.8,0.5,6.3,0.5
			c1.7,0,3.2-0.3,4.6-0.9c1.4-0.6,2.6-1.5,3.6-2.6c1-1.1,1.8-2.4,2.4-4c0.6-1.5,0.9-3.2,0.9-5.1c0-1.9-0.3-3.6-0.9-5.2
			c-0.6-1.6-1.4-2.9-2.4-4c-1-1.1-2.2-2-3.7-2.6c-1.4-0.6-3-0.9-4.7-0.9c-0.8,0-1.7,0-2.7,0.1c-0.9,0-2.1,0.1-3.5,0.2V33.1z"/>
		<path class="st1" d="M107.8,15.6c3.3-2.3,7.1-3.4,11.6-3.4c7.2,0,10.8,3.3,10.8,10v7.7c0,1.8,0.3,3.1,0.9,3.8
			c0.6,0.7,1.6,1.1,3.1,1.1l-1.6,5.2c-0.7,0.3-1.5,0.4-2.5,0.4c-1.2,0-2.3-0.4-3.3-1.1c-1-0.7-1.7-1.7-2.1-2.9
			c-0.9,1.4-2.1,2.5-3.7,3.3c-1.6,0.8-3.3,1.2-5.1,1.2c-1.5,0-2.8-0.2-4-0.6c-1.2-0.4-2.2-1-3-1.7c-0.8-0.8-1.5-1.7-2-2.7
			c-0.5-1.1-0.7-2.2-0.7-3.5c0-2.5,1-4.5,3.1-6c2.1-1.5,4.9-2.2,8.5-2.2h5.9v-1c0-1.7-0.5-3-1.4-3.9c-0.9-0.9-2.3-1.3-4.2-1.3
			c-0.6,0-1.3,0.1-1.9,0.2c-0.7,0.2-1.3,0.4-2,0.7c-0.7,0.3-1.3,0.6-1.9,1c-0.6,0.4-1.1,0.8-1.6,1.3L107.8,15.6z M118.8,28.4
			c-2,0-3.5,0.3-4.5,1c-1.1,0.7-1.6,1.6-1.6,2.7c0,1.1,0.4,2,1.2,2.6c0.8,0.6,2,1,3.5,1c1.9,0,3.4-0.5,4.6-1.5s1.7-2.3,1.7-3.9v-1.8
			H118.8z"/>
		<path class="st1" d="M143.3,5.8v7.3h7v5.7h-7v10.2c0,3.7,1.6,5.6,4.9,5.6c0.5,0,0.9,0,1.3-0.1c0.4-0.1,0.9-0.2,1.3-0.3l-1.2,5.5
			c-1.3,0.4-2.6,0.6-3.9,0.6c-2.9,0-5.1-0.9-6.6-2.6c-1.5-1.7-2.3-4.3-2.3-7.6V18.8h-3.4v-5.7h3.8V8L143.3,5.8z"/>
		<path class="st1" d="M153.4,15.6c3.3-2.3,7.1-3.4,11.6-3.4c7.2,0,10.8,3.3,10.8,10v7.7c0,1.8,0.3,3.1,0.9,3.8
			c0.6,0.7,1.6,1.1,3.1,1.1l-1.6,5.2c-0.7,0.3-1.5,0.4-2.5,0.4c-1.2,0-2.3-0.4-3.3-1.1c-1-0.7-1.7-1.7-2.1-2.9
			c-0.9,1.4-2.1,2.5-3.7,3.3c-1.6,0.8-3.3,1.2-5.1,1.2c-1.5,0-2.8-0.2-4-0.6c-1.2-0.4-2.2-1-3-1.7c-0.8-0.8-1.5-1.7-2-2.7
			c-0.5-1.1-0.7-2.2-0.7-3.5c0-2.5,1-4.5,3.1-6c2.1-1.5,4.9-2.2,8.5-2.2h5.9v-1c0-1.7-0.5-3-1.4-3.9c-0.9-0.9-2.3-1.3-4.2-1.3
			c-0.6,0-1.3,0.1-1.9,0.2c-0.7,0.2-1.3,0.4-2,0.7c-0.7,0.3-1.3,0.6-1.9,1c-0.6,0.4-1.1,0.8-1.6,1.3L153.4,15.6z M164.4,28.4
			c-2,0-3.5,0.3-4.5,1c-1.1,0.7-1.6,1.6-1.6,2.7c0,1.1,0.4,2,1.2,2.6c0.8,0.6,2,1,3.5,1c1.9,0,3.4-0.5,4.6-1.5s1.7-2.3,1.7-3.9v-1.8
			H164.4z"/>
		<path class="st1" d="M185.7,12.9l5.5,19.1l5.9-19.1h6.9L210,32l5.4-19.1h7.2l-8.9,27.1h-7.2L200.3,21l-5.8,18.9h-7.2l-8.9-27.1
			H185.7z"/>
		<path class="st1" d="M229.5,28.9c0.1,0.9,0.3,1.8,0.7,2.5c0.4,0.8,1,1.4,1.7,2s1.5,1,2.3,1.4c0.9,0.3,1.8,0.5,2.8,0.5
			c1.4,0,2.7-0.2,3.9-0.7c1.2-0.5,2.3-1.2,3.1-2.1l3.3,4.8c-1.4,1.1-3,2-4.9,2.6c-1.9,0.6-3.8,1-5.8,1c-2,0-3.8-0.4-5.5-1.1
			c-1.7-0.7-3.1-1.7-4.4-3c-1.2-1.3-2.2-2.8-2.9-4.6c-0.7-1.8-1-3.7-1-5.7c0-2.1,0.3-4.1,1-5.8c0.7-1.8,1.6-3.3,2.8-4.5
			c1.2-1.2,2.6-2.2,4.3-2.9c1.7-0.7,3.5-1.1,5.5-1.1c1.8,0,3.4,0.3,4.8,0.9c1.4,0.6,2.7,1.4,3.7,2.5c1,1.1,1.8,2.4,2.4,3.9
			c0.6,1.5,0.9,3.2,0.9,5c0,1.5-0.2,3-0.6,4.5H229.5z M242,24.4c0-0.2,0-0.3,0-0.5c0-0.1,0-0.3,0-0.5c0-1.6-0.5-2.9-1.6-4
			c-1.1-1.1-2.4-1.6-4.1-1.6c-0.9,0-1.8,0.2-2.6,0.5c-0.8,0.3-1.5,0.8-2.1,1.3c-0.6,0.6-1.1,1.2-1.5,2.1c-0.4,0.8-0.6,1.7-0.7,2.6
			H242z"/>
		<path class="st1" d="M258.8,1.3v28.4c0,1.7,0.3,3,0.9,3.7c0.6,0.8,1.6,1.1,3,1.1c0.5,0,1.1-0.1,1.6-0.2L263,40
			c-0.6,0.2-1.1,0.3-1.6,0.3c-0.5,0.1-1.1,0.1-1.6,0.1c-2.2,0-4-0.8-5.4-2.3c-1.3-1.5-2-3.6-2-6.2V1.3H258.8z"/>
		<path class="st1" d="M272.4,1.3v28.4c0,1.7,0.3,3,0.9,3.7c0.6,0.8,1.6,1.1,3,1.1c0.5,0,1.1-0.1,1.6-0.2l-1.3,5.5
			c-0.6,0.2-1.1,0.3-1.6,0.3c-0.5,0.1-1.1,0.1-1.6,0.1c-2.2,0-4-0.8-5.4-2.3c-1.3-1.5-2-3.6-2-6.2V1.3H272.4z"/>
	</g>
</g>
</svg>
